<svg width="55" height="55" viewBox="0 0 55 55" fill="none" xmlns="http://www.w3.org/2000/svg">
<g clip-path="url(#clip0_51_1644)">
<path d="M0.173998 5.0452L3.84206 11.4639C3.96579 11.6808 4.17288 11.8378 4.41505 11.8985L7.83717 12.754L19.5743 24.4911L20.8712 23.1946L8.95034 11.2742C8.83302 11.1565 8.68591 11.0731 8.52483 11.0328L5.23663 10.2078L2.11365 4.73966L4.79114 2.06217L10.2615 5.18817L11.0869 8.47637C11.1269 8.63782 11.2106 8.78531 11.3279 8.90263L23.2488 20.8234L24.5453 19.5266L12.8081 7.78946L11.9526 4.36923C11.8919 4.12668 11.735 3.91921 11.5181 3.79511L5.09895 0.127423C4.74097 -0.0762744 4.29057 -0.0159196 3.9986 0.274915L0.330921 3.94298C0.0359369 4.23306 -0.02819 4.68421 0.173998 5.0452Z" fill="#146EF5"/>
<path d="M38.2975 18.0721L18.1243 38.2457L16.8274 36.9488L37.001 16.7756L38.2975 18.0721Z" fill="#146EF5"/>
<path d="M14.5935 38.9594C14.4275 38.6833 14.1295 38.5146 13.8074 38.5146H8.30567C7.98391 38.5146 7.68553 38.6833 7.51993 38.9594L4.76888 43.5441C4.59423 43.8345 4.59423 44.1978 4.76888 44.4886L7.51993 49.0733C7.68553 49.3491 7.98391 49.5181 8.30567 49.5181H13.8074C14.1295 49.5181 14.4275 49.3491 14.5935 49.0733L17.3442 44.4886C17.5188 44.1978 17.5188 43.8345 17.3442 43.5441L14.5935 38.9594ZM13.2887 47.684H8.82472L6.62404 44.0164L8.82472 40.3483H13.2887L15.4894 44.0164L13.2887 47.684Z" fill="#146EF5"/>
<path d="M44.0674 22.0091C50.1236 22.0295 55.0501 17.1362 55.0704 11.08C55.0734 10.1581 54.9603 9.23991 54.7336 8.34629C54.6114 7.85477 54.1138 7.55564 53.6223 7.67786C53.4608 7.71822 53.3137 7.80159 53.196 7.9189L47.488 13.6232L42.9591 12.1139L41.4487 7.58619L47.1568 1.87701C47.5148 1.51866 47.5144 0.938118 47.156 0.580139C47.038 0.46207 46.8893 0.378328 46.7268 0.338343C40.8535 -1.14902 34.887 2.40625 33.3997 8.27914C33.1737 9.17013 33.0609 10.086 33.064 11.0053C33.0662 11.7273 33.1405 12.447 33.2869 13.1539L13.205 33.2355C12.4981 33.0895 11.7783 33.0152 11.0567 33.0125C4.97937 33.0125 0.0529175 37.939 0.0529175 44.0163C0.0529175 50.0933 4.97937 55.0198 11.0567 55.0198C17.1337 55.0198 22.0601 50.0933 22.0601 44.0163C22.0579 43.2943 21.9832 42.5746 21.8372 41.8677L26.6448 37.0601L28.7475 39.1627C29.1058 39.5207 29.686 39.5207 30.0443 39.1627L30.5026 38.704C30.9048 38.3045 31.5547 38.3045 31.9568 38.704C32.3586 39.1046 32.3593 39.7549 31.9587 40.1566C31.9583 40.157 31.9576 40.1578 31.9568 40.1585L31.4985 40.6168C31.1405 40.9748 31.1405 41.5554 31.4985 41.9133L42.437 52.8519C45.3141 55.7553 49.9999 55.7765 52.9033 52.8994C55.8064 50.0224 55.8275 45.3362 52.9505 42.4331C52.935 42.4173 52.9192 42.4015 52.9033 42.3856L41.9648 31.4475C41.6068 31.0895 41.0263 31.0895 40.6683 31.4475L40.21 31.9058C39.8075 32.3056 39.1579 32.3056 38.7554 31.9058C38.354 31.5052 38.3529 30.8548 38.7535 30.4535C38.7543 30.4527 38.755 30.4524 38.7554 30.4516L39.2141 29.9929C39.5721 29.6349 39.5721 29.0544 39.2141 28.6964L37.1115 26.5938L41.9191 21.7862C42.626 21.9321 43.3458 22.0068 44.0674 22.0091ZM47.6702 53.1861C47.004 53.185 46.3435 53.0646 45.72 52.8304L52.8814 45.6685C53.9622 48.5433 52.508 51.7497 49.6332 52.8304C49.0059 53.0661 48.3409 53.1869 47.6702 53.1861ZM37.282 29.3539C36.2665 30.5651 36.4257 32.3705 37.637 33.3856C38.7015 34.2777 40.253 34.277 41.3163 33.3829L51.6068 43.6825C51.7185 43.7945 51.823 43.9126 51.9241 44.0325L44.084 51.8726C43.9636 51.7719 43.8456 51.6674 43.7335 51.5554L33.4351 41.2562C34.4506 40.045 34.2914 38.2396 33.0802 37.2245C32.0157 36.332 30.4638 36.3332 29.4004 37.2268L27.9334 35.7598L35.8146 27.8903L37.282 29.3539ZM40.9848 20.1313L20.1831 40.9288C19.9549 41.1566 19.8632 41.4875 19.9409 41.8002C21.199 46.7406 18.2137 51.7655 13.2729 53.0231C8.33246 54.2812 3.30755 51.2959 2.04953 46.3551C0.791886 41.4147 3.77718 36.3898 8.71797 35.1317C10.2125 34.7515 11.7783 34.7515 13.2729 35.1317C13.5856 35.2083 13.9157 35.1166 14.1442 34.8899L34.941 14.0921C35.1688 13.8642 35.2605 13.5334 35.182 13.2211C33.9327 8.33837 36.878 3.3674 41.7607 2.11768C42.6834 1.88192 43.6377 1.79138 44.5883 1.85061L39.7513 6.68955C39.5057 6.93474 39.4197 7.298 39.5295 7.62731L41.3631 13.1294C41.4548 13.4029 41.6698 13.6179 41.9436 13.7088L47.4457 15.5428C47.7747 15.6526 48.1379 15.567 48.3835 15.3218L53.2206 10.4847C53.2315 10.6598 53.2372 10.8329 53.2372 11.0053C53.2628 16.0438 49.1994 20.149 44.1609 20.1751C43.382 20.1788 42.6057 20.083 41.8512 19.8899C41.5385 19.8118 41.2077 19.9031 40.9799 20.1309H40.9848V20.1313Z" fill="#146EF5"/>
<path d="M47.4676 46.1186L46.1707 47.4155L37.0013 38.2461L38.2978 36.9492L47.4676 46.1186Z" fill="#146EF5"/>
</g>
<defs>
<clipPath id="clip0_51_1644">
<rect width="55" height="55" fill="white"/>
</clipPath>
</defs>
</svg>
