<svg width="55" height="55" viewBox="0 0 55 55" fill="none" xmlns="http://www.w3.org/2000/svg">
<path d="M40.3408 35.4922L38.3092 32.7826C38.5257 32.3364 38.7143 31.8772 38.8738 31.4076L42.2314 30.928C42.436 30.8987 42.6231 30.7966 42.7585 30.6405C42.8939 30.4844 42.9686 30.2848 42.9688 30.0781V24.9219C42.9688 24.7151 42.8942 24.5152 42.7588 24.3589C42.6234 24.2027 42.4361 24.1005 42.2314 24.0711L38.8738 23.5916C38.7143 23.122 38.5258 22.6627 38.3092 22.2166L40.3408 19.5078C40.4647 19.3425 40.525 19.138 40.5105 18.9319C40.4959 18.7258 40.4076 18.5318 40.2617 18.3855L36.6145 14.7383C36.4682 14.5924 36.2742 14.5041 36.0681 14.4895C35.862 14.475 35.6575 14.5353 35.4922 14.6592L32.7817 16.6908C32.3355 16.4742 31.8763 16.2857 31.4067 16.1262L30.9272 12.7686C30.8979 12.5642 30.7959 12.3772 30.64 12.2418C30.4841 12.1064 30.2846 12.0316 30.0781 12.0313H24.9219C24.7151 12.0312 24.5152 12.1058 24.3589 12.2412C24.2027 12.3766 24.1005 12.5639 24.0711 12.7686L23.5916 16.1262C23.122 16.2857 22.6627 16.4742 22.2166 16.6908L19.5078 14.6592C19.3425 14.5353 19.138 14.475 18.9319 14.4895C18.7258 14.5041 18.5318 14.5924 18.3855 14.7383L14.7383 18.3855C14.5924 18.5318 14.5041 18.7258 14.4895 18.9319C14.475 19.138 14.5353 19.3425 14.6592 19.5078L16.6908 22.2183C16.4742 22.6645 16.2857 23.1237 16.1262 23.5933L12.7686 24.0728C12.5642 24.1021 12.3772 24.2041 12.2418 24.36C12.1064 24.5159 12.0316 24.7154 12.0313 24.9219V30.0781C12.0312 30.2849 12.1058 30.4848 12.2412 30.6411C12.3766 30.7973 12.5639 30.8995 12.7686 30.9289L16.1262 31.4084C16.2857 31.878 16.4743 32.3372 16.6908 32.7834L14.6592 35.4922C14.5353 35.6575 14.475 35.862 14.4895 36.0681C14.5041 36.2742 14.5924 36.4682 14.7383 36.6145L18.3855 40.2617C18.5318 40.4076 18.7258 40.4959 18.9319 40.5105C19.138 40.525 19.3425 40.4647 19.5078 40.3408L22.2174 38.3092C22.6636 38.5257 23.1228 38.7143 23.5924 38.8738L24.072 42.2314C24.1013 42.436 24.2034 42.6231 24.3595 42.7585C24.5156 42.8939 24.7152 42.9686 24.9219 42.9688H30.0781C30.2849 42.9688 30.4848 42.8942 30.6411 42.7588C30.7973 42.6234 30.8995 42.4361 30.9289 42.2314L31.4084 38.8738C31.878 38.7143 32.3372 38.5257 32.7834 38.3092L35.4922 40.3408C35.6575 40.4647 35.862 40.525 36.0681 40.5105C36.2742 40.4959 36.4682 40.4076 36.6145 40.2617L40.2617 36.6145C40.4076 36.4682 40.4959 36.2742 40.5105 36.0681C40.525 35.862 40.4647 35.6575 40.3408 35.4922ZM35.927 38.5189L33.3824 36.6094C33.2503 36.5102 33.0924 36.4513 32.9277 36.4395C32.7629 36.4278 32.5983 36.4638 32.4534 36.5432C31.7989 36.9003 31.1073 37.1847 30.3909 37.3914C30.2325 37.4376 30.0906 37.5285 29.9824 37.6531C29.8742 37.7778 29.8042 37.931 29.7808 38.0944L29.333 41.25H25.667L25.2175 38.0961C25.1941 37.9327 25.124 37.7795 25.0158 37.6548C24.9076 37.5302 24.7658 37.4393 24.6073 37.3931C23.891 37.1864 23.1994 36.902 22.5448 36.5449C22.4 36.4655 22.2354 36.4295 22.0706 36.4413C21.9059 36.453 21.748 36.512 21.6159 36.6111L19.0712 38.5189L16.4794 35.927L18.3872 33.3824C18.4863 33.2503 18.5453 33.0924 18.557 32.9277C18.5688 32.7629 18.5328 32.5983 18.4534 32.4534C18.0963 31.7989 17.8119 31.1073 17.6052 30.3909C17.559 30.2325 17.4681 30.0906 17.3434 29.9824C17.2188 29.8742 17.0656 29.8042 16.9022 29.7808L13.75 29.333V25.667L16.9039 25.2175C17.0673 25.1941 17.2205 25.124 17.3452 25.0158C17.4698 24.9076 17.5607 24.7658 17.6069 24.6073C17.8134 23.8908 18.0981 23.1991 18.4559 22.5448C18.5352 22.3999 18.5711 22.2352 18.5592 22.0705C18.5473 21.9057 18.4882 21.7479 18.3889 21.6159L16.4811 19.0712L19.073 16.4794L21.6176 18.3872C21.7496 18.4865 21.9074 18.5456 22.0722 18.5575C22.237 18.5694 22.4017 18.5335 22.5466 18.4542C23.2008 18.0964 23.8925 17.8116 24.6091 17.6052C24.7675 17.559 24.9094 17.4681 25.0176 17.3434C25.1258 17.2188 25.1958 17.0656 25.2192 16.9022L25.667 13.75H29.333L29.7825 16.9039C29.8059 17.0673 29.876 17.2205 29.9842 17.3452C30.0924 17.4698 30.2342 17.5607 30.3927 17.6069C31.1092 17.8134 31.8009 18.0981 32.4552 18.4559C32.6001 18.5352 32.7648 18.5711 32.9295 18.5592C33.0943 18.5473 33.2521 18.4882 33.3841 18.3889L35.9287 16.4811L38.5206 19.073L36.6094 21.6176C36.5101 21.7496 36.451 21.9074 36.4391 22.0722C36.4272 22.237 36.4631 22.4017 36.5423 22.5466C36.9002 23.2008 37.1849 23.8925 37.3914 24.6091C37.4376 24.7675 37.5285 24.9094 37.6531 25.0176C37.7778 25.1258 37.931 25.1958 38.0944 25.2192L41.2483 25.6687V29.3348L38.0944 29.7842C37.931 29.8077 37.7778 29.8777 37.6531 29.9859C37.5285 30.0941 37.4376 30.2359 37.3914 30.3944C37.1847 31.1107 36.9003 31.8024 36.5432 32.4569C36.4638 32.6017 36.4278 32.7664 36.4395 32.9311C36.4513 33.0959 36.5102 33.2537 36.6094 33.3859L38.5172 35.9305L35.927 38.5189Z" fill="#146EF5"/>
<path d="M28.3594 15.4688H26.6406V17.1875H28.3594V15.4688Z" fill="#146EF5"/>
<path d="M19.601 18.3855L18.3856 19.6008L19.601 20.8162L20.8163 19.6008L19.601 18.3855Z" fill="#146EF5"/>
<path d="M19.6005 34.1836L18.3851 35.3989L19.6005 36.6143L20.8158 35.3989L19.6005 34.1836Z" fill="#146EF5"/>
<path d="M28.3594 37.8125H26.6406V39.5312H28.3594V37.8125Z" fill="#146EF5"/>
<path d="M35.3995 34.1841L34.1842 35.3994L35.3995 36.6148L36.6149 35.3994L35.3995 34.1841Z" fill="#146EF5"/>
<path d="M35.4 18.3857L34.1847 19.6011L35.4 20.8164L36.6154 19.6011L35.4 18.3857Z" fill="#146EF5"/>
<path d="M27.5 20.625C26.1403 20.625 24.811 21.0282 23.6805 21.7836C22.5499 22.5391 21.6687 23.6128 21.1483 24.8691C20.628 26.1253 20.4918 27.5076 20.7571 28.8412C21.0224 30.1749 21.6772 31.3999 22.6386 32.3614C23.6001 33.3228 24.8251 33.9776 26.1588 34.2429C27.4924 34.5082 28.8747 34.372 30.131 33.8517C31.3872 33.3313 32.4609 32.4501 33.2164 31.3195C33.9718 30.189 34.375 28.8597 34.375 27.5C34.373 25.6773 33.648 23.9298 32.3591 22.6409C31.0702 21.352 29.3227 20.627 27.5 20.625ZM27.5 32.6562C26.4802 32.6562 25.4833 32.3538 24.6353 31.7873C23.7874 31.2207 23.1265 30.4154 22.7362 29.4732C22.346 28.531 22.2439 27.4943 22.4428 26.4941C22.6418 25.4939 23.1329 24.5751 23.854 23.854C24.5751 23.1329 25.4939 22.6418 26.4941 22.4428C27.4943 22.2439 28.531 22.346 29.4732 22.7362C30.4154 23.1265 31.2207 23.7874 31.7873 24.6353C32.3538 25.4833 32.6563 26.4802 32.6563 27.5C32.6549 28.8671 32.1112 30.1778 31.1445 31.1445C30.1778 32.1112 28.8671 32.6549 27.5 32.6562Z" fill="#146EF5"/>
<path d="M17.1875 26.6406H15.4688V28.3594H17.1875V26.6406Z" fill="#146EF5"/>
<path d="M39.5312 26.6406H37.8125V28.3594H39.5312V26.6406Z" fill="#146EF5"/>
<path d="M48.9843 44.6876C48.1424 44.6878 47.3193 44.9368 46.6185 45.4034L43.8857 42.6698C47.7144 38.5468 49.8422 33.1284 49.8422 27.5018C49.8422 21.8752 47.7144 16.4568 43.8857 12.3338L46.6185 9.60016C47.5093 10.1898 48.5873 10.4275 49.6435 10.2673C50.6997 10.1071 51.6587 9.56037 52.3346 8.73311C53.0105 7.90585 53.3551 6.85705 53.3015 5.79013C53.2479 4.72321 52.8 3.71422 52.0446 2.95884C51.2893 2.20346 50.2803 1.75554 49.2134 1.70196C48.1464 1.64838 47.0976 1.99295 46.2704 2.66885C45.4431 3.34474 44.8964 4.30379 44.7362 5.35997C44.576 6.41615 44.8137 7.4942 45.4033 8.38501L42.6697 11.1178C38.5466 7.28913 33.1282 5.1613 27.5017 5.1613C21.8751 5.1613 16.4567 7.28913 12.3337 11.1178L9.60004 8.38501C10.1897 7.4942 10.4274 6.41615 10.2672 5.35997C10.107 4.30379 9.56024 3.34474 8.73299 2.66885C7.90573 1.99295 6.85693 1.64838 5.79001 1.70196C4.72309 1.75554 3.71409 2.20346 2.95872 2.95884C2.20334 3.71422 1.75542 4.72321 1.70184 5.79013C1.64826 6.85705 1.99283 7.90585 2.66872 8.73311C3.34462 9.56037 4.30366 10.1071 5.35985 10.2673C6.41603 10.4275 7.49407 10.1898 8.38489 9.60016L11.1177 12.3338C7.289 16.4568 5.16117 21.8752 5.16117 27.5018C5.16117 33.1284 7.289 38.5468 11.1177 42.6698L8.38489 45.4034C7.49407 44.8138 6.41603 44.5761 5.35985 44.7363C4.30366 44.8965 3.34462 45.4432 2.66872 46.2705C1.99283 47.0978 1.64826 48.1466 1.70184 49.2135C1.75542 50.2804 2.20334 51.2894 2.95872 52.0448C3.71409 52.8001 4.72309 53.2481 5.79001 53.3016C6.85693 53.3552 7.90573 53.0107 8.73299 52.3348C9.56024 51.6589 10.107 50.6998 10.2672 49.6436C10.4274 48.5875 10.1897 47.5094 9.60004 46.6186L12.3337 43.8858C16.4567 47.7145 21.8751 49.8423 27.5017 49.8423C33.1282 49.8423 38.5466 47.7145 42.6697 43.8858L45.4033 46.6186C44.8764 47.4175 44.6312 48.3696 44.7068 49.3237C44.7823 50.2778 45.1742 51.1793 45.8204 51.8854C46.4665 52.5914 47.3299 53.0615 48.2736 53.2211C49.2173 53.3808 50.1872 53.2208 51.0296 52.7665C51.8721 52.3122 52.5387 51.5897 52.9238 50.7136C53.309 49.8374 53.3906 48.8577 53.1557 47.9299C52.9208 47.0021 52.3829 46.1793 51.6272 45.5919C50.8715 45.0045 49.9414 44.6863 48.9843 44.6876ZM48.9843 3.43759C49.4942 3.43759 49.9927 3.58879 50.4167 3.87208C50.8406 4.15537 51.1711 4.55801 51.3662 5.02911C51.5613 5.5002 51.6124 6.01857 51.5129 6.51868C51.4134 7.01879 51.1679 7.47816 50.8073 7.83872C50.4468 8.19928 49.9874 8.44482 49.4873 8.5443C48.9872 8.64378 48.4688 8.59272 47.9977 8.39759C47.5266 8.20246 47.124 7.87201 46.8407 7.44804C46.5574 7.02407 46.4062 6.52562 46.4062 6.01571C46.4062 5.33195 46.6778 4.67619 47.1613 4.1927C47.6448 3.70921 48.3006 3.43759 48.9843 3.43759ZM6.01559 8.59384C5.50568 8.59384 5.00723 8.44263 4.58326 8.15934C4.15929 7.87606 3.82884 7.47341 3.63371 7.00232C3.43858 6.53123 3.38752 6.01285 3.487 5.51274C3.58648 5.01264 3.83202 4.55326 4.19258 4.1927C4.55314 3.83214 5.01251 3.5866 5.51262 3.48712C6.01273 3.38765 6.5311 3.4387 7.00219 3.63383C7.47329 3.82897 7.87593 4.15941 8.15922 4.58338C8.44251 5.00735 8.59371 5.50581 8.59371 6.01571C8.59371 6.69947 8.32209 7.35523 7.8386 7.83872C7.35511 8.32221 6.69935 8.59384 6.01559 8.59384ZM6.01559 51.5626C5.50568 51.5626 5.00723 51.4114 4.58326 51.1281C4.15929 50.8448 3.82884 50.4422 3.63371 49.9711C3.43858 49.5 3.38752 48.9816 3.487 48.4815C3.58648 47.9814 3.83202 47.522 4.19258 47.1615C4.55314 46.8009 5.01251 46.5554 5.51262 46.4559C6.01273 46.3564 6.5311 46.4075 7.00219 46.6026C7.47329 46.7977 7.87593 47.1282 8.15922 47.5521C8.44251 47.9761 8.59371 48.4746 8.59371 48.9845C8.59371 49.6682 8.32209 50.324 7.8386 50.8075C7.35511 51.291 6.69935 51.5626 6.01559 51.5626ZM27.5 48.1251C22.3274 48.1284 17.3439 46.1806 13.5446 42.6706L15.2169 40.9983L14.0018 39.7831L12.3294 41.4555C8.8222 37.6544 6.87481 32.672 6.87481 27.5001C6.87481 22.3281 8.8222 17.3458 12.3294 13.5447L14.0018 15.217L15.2169 14.0019L13.5446 12.3295C17.3457 8.82233 22.328 6.87493 27.5 6.87493C32.6719 6.87493 37.6542 8.82233 41.4554 12.3295L39.783 14.0019L40.9982 15.217L42.6705 13.5447C46.1777 17.3458 48.1251 22.3281 48.1251 27.5001C48.1251 32.672 46.1777 37.6544 42.6705 41.4555L40.9982 39.7831L39.783 40.9983L41.4554 42.6706C37.656 46.1806 32.6725 48.1284 27.5 48.1251ZM48.9843 51.5626C48.4744 51.5626 47.976 51.4114 47.552 51.1281C47.128 50.8448 46.7976 50.4422 46.6025 49.9711C46.4073 49.5 46.3563 48.9816 46.4557 48.4815C46.5552 47.9814 46.8008 47.522 47.1613 47.1615C47.5219 46.8009 47.9813 46.5554 48.4814 46.4559C48.9815 46.3564 49.4999 46.4075 49.9709 46.6026C50.442 46.7977 50.8447 47.1282 51.128 47.5521C51.4113 47.9761 51.5625 48.4746 51.5625 48.9845C51.5625 49.6682 51.2908 50.324 50.8073 50.8075C50.3239 51.291 49.6681 51.5626 48.9843 51.5626Z" fill="#146EF5"/>
</svg>
